<svg xmlns="http://www.w3.org/2000/svg" width="800" height="600" viewBox="0 0 800 600">
  <rect width="800" height="600" fill="#F7F6F2"/>

  <!-- Background grid -->
  <defs>
    <pattern id="grid" width="40" height="40" patternUnits="userSpaceOnUse">
      <path d="M 40 0 L 0 0 0 40" fill="none" stroke="#E4E2DC" stroke-width="1"/>
    </pattern>
  </defs>
  <rect width="800" height="600" fill="url(#grid)"/>

  <!-- Editor window -->
  <rect x="60" y="80" width="320" height="420" rx="8" fill="#FFFFFF" stroke="#E4E2DC" stroke-width="1.5"/>
  <!-- Window chrome -->
  <rect x="60" y="80" width="320" height="36" rx="8" fill="#F0EEE8"/>
  <rect x="60" y="104" width="320" height="12" fill="#F0EEE8"/>
  <circle cx="88" cy="98" r="6" fill="#E84855" opacity="0.7"/>
  <circle cx="108" cy="98" r="6" fill="#FFB830" opacity="0.7"/>
  <circle cx="128" cy="98" r="6" fill="#00C17A" opacity="0.7"/>

  <!-- File label -->
  <rect x="80" y="128" width="130" height="22" rx="3" fill="#F7F6F2"/>
  <rect x="80" y="128" width="6" height="22" rx="2" fill="#3D5AF1"/>
  <rect x="92" y="134" width="80" height="5" rx="2" fill="#6B7280" opacity="0.5"/>
  <rect x="92" y="143" width="55" height="4" rx="2" fill="#6B7280" opacity="0.3"/>

  <!-- Code lines -->
  <rect x="80" y="164" width="40" height="5" rx="2" fill="#E84855" opacity="0.6"/>
  <rect x="126" y="164" width="100" height="5" rx="2" fill="#0A0A0A" opacity="0.15"/>

  <rect x="80" y="180" width="30" height="5" rx="2" fill="#3D5AF1" opacity="0.6"/>
  <rect x="116" y="180" width="140" height="5" rx="2" fill="#0A0A0A" opacity="0.15"/>

  <rect x="80" y="196" width="50" height="5" rx="2" fill="#0A0A0A" opacity="0.12"/>
  <rect x="136" y="196" width="90" height="5" rx="2" fill="#0A0A0A" opacity="0.12"/>

  <rect x="90" y="214" width="30" height="5" rx="2" fill="#3D5AF1" opacity="0.4"/>
  <rect x="126" y="214" width="120" height="5" rx="2" fill="#0A0A0A" opacity="0.12"/>

  <rect x="90" y="230" width="30" height="5" rx="2" fill="#3D5AF1" opacity="0.4"/>
  <rect x="126" y="230" width="80" height="5" rx="2" fill="#0A0A0A" opacity="0.12"/>

  <rect x="90" y="246" width="30" height="5" rx="2" fill="#3D5AF1" opacity="0.4"/>
  <rect x="126" y="246" width="100" height="5" rx="2" fill="#0A0A0A" opacity="0.12"/>

  <rect x="80" y="264" width="40" height="5" rx="2" fill="#E84855" opacity="0.5"/>
  <rect x="126" y="264" width="70" height="5" rx="2" fill="#0A0A0A" opacity="0.12"/>

  <rect x="80" y="280" width="30" height="5" rx="2" fill="#3D5AF1" opacity="0.4"/>
  <rect x="116" y="280" width="110" height="5" rx="2" fill="#0A0A0A" opacity="0.12"/>

  <rect x="90" y="296" width="60" height="5" rx="2" fill="#0A0A0A" opacity="0.1"/>
  <rect x="156" y="296" width="80" height="5" rx="2" fill="#0A0A0A" opacity="0.1"/>

  <rect x="90" y="312" width="45" height="5" rx="2" fill="#0A0A0A" opacity="0.1"/>
  <rect x="141" y="312" width="60" height="5" rx="2" fill="#0A0A0A" opacity="0.1"/>

  <!-- Arrow -->
  <line x1="398" y1="290" x2="440" y2="290" stroke="#3D5AF1" stroke-width="2"/>
  <polygon points="440,284 452,290 440,296" fill="#3D5AF1"/>
  <line x1="390" y1="290" x2="400" y2="290" stroke="#3D5AF1" stroke-width="2" stroke-dasharray="4,3"/>
  <line x1="368" y1="290" x2="383" y2="290" stroke="#3D5AF1" stroke-width="2" stroke-dasharray="4,3"/>

  <!-- Preview window -->
  <rect x="456" y="80" width="290" height="420" rx="8" fill="#FFFFFF" stroke="#E4E2DC" stroke-width="1.5"/>
  <!-- Window chrome -->
  <rect x="456" y="80" width="290" height="36" rx="8" fill="#F0EEE8"/>
  <rect x="456" y="104" width="290" height="12" fill="#F0EEE8"/>
  <rect x="476" y="90" width="120" height="10" rx="5" fill="#E4E2DC"/>
  <rect x="716" y="91" width="18" height="8" rx="2" fill="#3D5AF1" opacity="0.4"/>

  <!-- Hero block preview -->
  <rect x="474" y="128" width="50" height="9" rx="4" fill="#E84855" opacity="0.15"/>
  <rect x="474" y="128" width="50" height="9" rx="4" fill="none" stroke="#E84855" stroke-width="1" opacity="0.4"/>
  <rect x="474" y="146" width="200" height="14" rx="3" fill="#0A0A0A" opacity="0.12"/>
  <rect x="474" y="166" width="160" height="14" rx="3" fill="#0A0A0A" opacity="0.12"/>
  <rect x="474" y="188" width="230" height="5" rx="2" fill="#6B7280" opacity="0.25"/>
  <rect x="474" y="198" width="180" height="5" rx="2" fill="#6B7280" opacity="0.2"/>
  <rect x="474" y="216" width="60" height="22" rx="3" fill="#0A0A0A" opacity="0.85"/>

  <!-- Divider -->
  <line x1="474" y1="252" x2="728" y2="252" stroke="#E4E2DC" stroke-width="1"/>

  <!-- Steps block preview -->
  <rect x="474" y="264" width="70" height="7" rx="3" fill="#3D5AF1" opacity="0.2"/>
  <rect x="474" y="276" width="130" height="10" rx="3" fill="#0A0A0A" opacity="0.1"/>

  <rect x="474" y="298" width="70" height="70" rx="4" fill="#F7F6F2" stroke="#E4E2DC" stroke-width="1"/>
  <rect x="482" y="306" width="20" height="6" rx="2" fill="#E84855" opacity="0.5"/>
  <rect x="482" y="318" width="52" height="5" rx="2" fill="#0A0A0A" opacity="0.15"/>
  <rect x="482" y="328" width="52" height="4" rx="2" fill="#6B7280" opacity="0.2"/>
  <rect x="482" y="336" width="40" height="4" rx="2" fill="#6B7280" opacity="0.2"/>

  <rect x="554" y="298" width="70" height="70" rx="4" fill="#F7F6F2" stroke="#E4E2DC" stroke-width="1"/>
  <rect x="562" y="306" width="20" height="6" rx="2" fill="#E84855" opacity="0.5"/>
  <rect x="562" y="318" width="52" height="5" rx="2" fill="#0A0A0A" opacity="0.15"/>
  <rect x="562" y="328" width="52" height="4" rx="2" fill="#6B7280" opacity="0.2"/>
  <rect x="562" y="336" width="40" height="4" rx="2" fill="#6B7280" opacity="0.2"/>

  <rect x="634" y="298" width="70" height="70" rx="4" fill="#F7F6F2" stroke="#E4E2DC" stroke-width="1"/>
  <rect x="642" y="306" width="20" height="6" rx="2" fill="#E84855" opacity="0.5"/>
  <rect x="642" y="318" width="52" height="5" rx="2" fill="#0A0A0A" opacity="0.15"/>
  <rect x="642" y="328" width="52" height="4" rx="2" fill="#6B7280" opacity="0.2"/>
  <rect x="642" y="336" width="40" height="4" rx="2" fill="#6B7280" opacity="0.2"/>

  <!-- CTA block preview -->
  <rect x="456" y="388" width="290" height="112" rx="0 0 8 8" fill="#0A0A0A" opacity="0.88"/>
  <rect x="542" y="408" width="130" height="12" rx="3" fill="#FFFFFF" opacity="0.15"/>
  <rect x="562" y="428" width="90" height="12" rx="3" fill="#FFFFFF" opacity="0.1"/>
  <rect x="574" y="450" width="66" height="22" rx="3" fill="#E84855"/>

  <!-- Floating badge -->
  <rect x="340" y="60" width="120" height="28" rx="14" fill="#3D5AF1"/>
  <rect x="352" y="70" width="96" height="8" rx="4" fill="#FFFFFF" opacity="0.7"/>
</svg>
